<svg id="canvas" height="auto" xmlns="http://www.w3.org/2000/svg" version="1.1" xmlns:xlink="http://www.w3.org/1999/xlink" viewBox="0 0 540 360" width="auto" style="width: auto; height: auto;"><rect width="540" height="360" fill="transparent"/><mask id="mask" mask-type="alpha" maskUnits="userSpaceOnUse"><rect transform="translate(0, 0)" width="540" height="360" fill="white"/></mask><svg><path transform="translate(0, 60) translate(30,30) rotate(0) translate(-30,-30)" d="M0 60C33.1371 60 60 33.1371 60 5.24537e-06L5.24537e-06 0L0 60Z" fill="#fef9ef"/></svg><svg><path transform="translate(0, 120) translate(30,30) rotate(90) translate(-30,-30)" d="M0 60C33.1371 60 60 33.1371 60 5.24537e-06L5.24537e-06 0L0 60Z" fill="#17c3b2"/></svg><svg><path transform="translate(0, 180) translate(30,30) rotate(0) translate(-30,-30)" d="M0 60C33.1371 60 60 33.1371 60 5.24537e-06L5.24537e-06 0L0 60Z" fill="#ffcb77"/></svg><svg><path transform="translate(0, 300) translate(30,30) rotate(180) translate(-30,-30)" d="M0 60C33.1371 60 60 33.1371 60 5.24537e-06L5.24537e-06 0L0 60Z" fill="#227c9d"/></svg><svg><path transform="translate(60, 0) translate(30,30) rotate(0) translate(-30,-30)" d="M0 60C33.1371 60 60 33.1371 60 5.24537e-06L5.24537e-06 0L0 60Z" fill="#fef9ef"/></svg><svg><path transform="translate(60, 60) translate(30,30) rotate(0) translate(-30,-30)" d="M0 60C33.1371 60 60 33.1371 60 5.24537e-06L5.24537e-06 0L0 60Z" fill="#ffcb77"/></svg><svg><path transform="translate(60, 120) translate(30,30) rotate(0) translate(-30,-30)" d="M0 60C33.1371 60 60 33.1371 60 5.24537e-06L5.24537e-06 0L0 60Z" fill="#fe6d73"/></svg><svg><path transform="translate(60, 180) translate(30,30) rotate(0) translate(-30,-30)" d="M0 60C33.1371 60 60 33.1371 60 5.24537e-06L5.24537e-06 0L0 60Z" fill="#fe6d73"/></svg><svg><path transform="translate(60, 240) translate(30,30) rotate(90) translate(-30,-30)" d="M0 60C33.1371 60 60 33.1371 60 5.24537e-06L5.24537e-06 0L0 60Z" fill="#17c3b2"/></svg><svg><path transform="translate(60, 300) translate(30,30) rotate(0) translate(-30,-30)" d="M0 60C33.1371 60 60 33.1371 60 5.24537e-06L5.24537e-06 0L0 60Z" fill="#227c9d"/></svg><svg><path transform="translate(120, 0) translate(30,30) rotate(0) translate(-30,-30)" d="M0 60C33.1371 60 60 33.1371 60 5.24537e-06L5.24537e-06 0L0 60Z" fill="#fef9ef"/></svg><svg><path transform="translate(120, 120) translate(30,30) rotate(90) translate(-30,-30)" d="M0 60C33.1371 60 60 33.1371 60 5.24537e-06L5.24537e-06 0L0 60Z" fill="#227c9d"/></svg><svg><path transform="translate(120, 180) translate(30,30) rotate(0) translate(-30,-30)" d="M0 60C33.1371 60 60 33.1371 60 5.24537e-06L5.24537e-06 0L0 60Z" fill="#17c3b2"/></svg><svg><path transform="translate(120, 240) translate(30,30) rotate(180) translate(-30,-30)" d="M0 60C33.1371 60 60 33.1371 60 5.24537e-06L5.24537e-06 0L0 60Z" fill="#17c3b2"/></svg><svg><path transform="translate(120, 300) translate(30,30) rotate(90) translate(-30,-30)" d="M0 60C33.1371 60 60 33.1371 60 5.24537e-06L5.24537e-06 0L0 60Z" fill="#227c9d"/></svg><svg><path transform="translate(180, 0) translate(30,30) rotate(90) translate(-30,-30)" d="M0 60C33.1371 60 60 33.1371 60 5.24537e-06L5.24537e-06 0L0 60Z" fill="#fef9ef"/></svg><svg><path transform="translate(180, 60) translate(30,30) rotate(90) translate(-30,-30)" d="M0 60C33.1371 60 60 33.1371 60 5.24537e-06L5.24537e-06 0L0 60Z" fill="#fe6d73"/></svg><svg><path transform="translate(180, 180) translate(30,30) rotate(180) translate(-30,-30)" d="M0 60C33.1371 60 60 33.1371 60 5.24537e-06L5.24537e-06 0L0 60Z" fill="#ffcb77"/></svg><svg><path transform="translate(180, 240) translate(30,30) rotate(90) translate(-30,-30)" d="M0 60C33.1371 60 60 33.1371 60 5.24537e-06L5.24537e-06 0L0 60Z" fill="#17c3b2"/></svg><svg><path transform="translate(180, 300) translate(30,30) rotate(180) translate(-30,-30)" d="M0 60C33.1371 60 60 33.1371 60 5.24537e-06L5.24537e-06 0L0 60Z" fill="#fef9ef"/></svg><svg><path transform="translate(240, 60) translate(30,30) rotate(180) translate(-30,-30)" d="M0 60C33.1371 60 60 33.1371 60 5.24537e-06L5.24537e-06 0L0 60Z" fill="#fef9ef"/></svg><svg><path transform="translate(240, 120) translate(30,30) rotate(180) translate(-30,-30)" d="M0 60C33.1371 60 60 33.1371 60 5.24537e-06L5.24537e-06 0L0 60Z" fill="#17c3b2"/></svg><svg><path transform="translate(240, 180) translate(30,30) rotate(270) translate(-30,-30)" d="M0 60C33.1371 60 60 33.1371 60 5.24537e-06L5.24537e-06 0L0 60Z" fill="#fe6d73"/></svg><svg><path transform="translate(240, 240) translate(30,30) rotate(0) translate(-30,-30)" d="M0 60C33.1371 60 60 33.1371 60 5.24537e-06L5.24537e-06 0L0 60Z" fill="#ffcb77"/></svg><svg><path transform="translate(240, 300) translate(30,30) rotate(0) translate(-30,-30)" d="M0 60C33.1371 60 60 33.1371 60 5.24537e-06L5.24537e-06 0L0 60Z" fill="#ffcb77"/></svg><svg><path transform="translate(300, 0) translate(30,30) rotate(270) translate(-30,-30)" d="M0 60C33.1371 60 60 33.1371 60 5.24537e-06L5.24537e-06 0L0 60Z" fill="#ffcb77"/></svg><svg><path transform="translate(300, 180) translate(30,30) rotate(270) translate(-30,-30)" d="M0 60C33.1371 60 60 33.1371 60 5.24537e-06L5.24537e-06 0L0 60Z" fill="#fef9ef"/></svg><svg><path transform="translate(300, 240) translate(30,30) rotate(0) translate(-30,-30)" d="M0 60C33.1371 60 60 33.1371 60 5.24537e-06L5.24537e-06 0L0 60Z" fill="#17c3b2"/></svg><svg><path transform="translate(360, 0) translate(30,30) rotate(0) translate(-30,-30)" d="M0 60C33.1371 60 60 33.1371 60 5.24537e-06L5.24537e-06 0L0 60Z" fill="#ffcb77"/></svg><svg><path transform="translate(360, 180) translate(30,30) rotate(90) translate(-30,-30)" d="M0 60C33.1371 60 60 33.1371 60 5.24537e-06L5.24537e-06 0L0 60Z" fill="#fe6d73"/></svg><svg><path transform="translate(360, 240) translate(30,30) rotate(0) translate(-30,-30)" d="M0 60C33.1371 60 60 33.1371 60 5.24537e-06L5.24537e-06 0L0 60Z" fill="#ffcb77"/></svg><svg><path transform="translate(360, 300) translate(30,30) rotate(0) translate(-30,-30)" d="M0 60C33.1371 60 60 33.1371 60 5.24537e-06L5.24537e-06 0L0 60Z" fill="#17c3b2"/></svg><svg><path transform="translate(420, 120) translate(30,30) rotate(90) translate(-30,-30)" d="M0 60C33.1371 60 60 33.1371 60 5.24537e-06L5.24537e-06 0L0 60Z" fill="#fe6d73"/></svg><svg><path transform="translate(420, 180) translate(30,30) rotate(180) translate(-30,-30)" d="M0 60C33.1371 60 60 33.1371 60 5.24537e-06L5.24537e-06 0L0 60Z" fill="#fef9ef"/></svg><svg><path transform="translate(420, 240) translate(30,30) rotate(180) translate(-30,-30)" d="M0 60C33.1371 60 60 33.1371 60 5.24537e-06L5.24537e-06 0L0 60Z" fill="#fef9ef"/></svg><svg><path transform="translate(420, 300) translate(30,30) rotate(90) translate(-30,-30)" d="M0 60C33.1371 60 60 33.1371 60 5.24537e-06L5.24537e-06 0L0 60Z" fill="#17c3b2"/></svg><svg><path transform="translate(480, 0) translate(30,30) rotate(90) translate(-30,-30)" d="M0 60C33.1371 60 60 33.1371 60 5.24537e-06L5.24537e-06 0L0 60Z" fill="#ffcb77"/></svg><svg><path transform="translate(480, 60) translate(30,30) rotate(270) translate(-30,-30)" d="M0 60C33.1371 60 60 33.1371 60 5.24537e-06L5.24537e-06 0L0 60Z" fill="#fe6d73"/></svg><svg><path transform="translate(480, 240) translate(30,30) rotate(90) translate(-30,-30)" d="M0 60C33.1371 60 60 33.1371 60 5.24537e-06L5.24537e-06 0L0 60Z" fill="#17c3b2"/></svg><svg><path transform="translate(480, 300) translate(30,30) rotate(90) translate(-30,-30)" d="M0 60C33.1371 60 60 33.1371 60 5.24537e-06L5.24537e-06 0L0 60Z" fill="#fe6d73"/></svg></svg>